<mxfile host="app.diagrams.net" modified="2021-06-03T11:43:31.688Z" agent="5.0 (X11)" etag="xBE5lfsVnaODlAyPwXuU" version="14.6.13" type="github">
  <diagram id="V7bS7ZGvb8GI5Ki3fT6N" name="Page-1">
    <mxGraphModel dx="1422" dy="767" grid="1" gridSize="10" guides="1" tooltips="1" connect="1" arrows="1" fold="1" page="1" pageScale="1" pageWidth="1654" pageHeight="1169" math="0" shadow="0">
      <root>
        <mxCell id="0" />
        <mxCell id="1" parent="0" />
        <mxCell id="9oEyipRwHzk4dOdtvLpS-50" value="hotel_list" style="shape=table;startSize=30;container=1;collapsible=1;childLayout=tableLayout;fixedRows=1;rowLines=0;fontStyle=1;align=center;resizeLast=1;" parent="1" vertex="1">
          <mxGeometry x="1040" y="200" width="210" height="330" as="geometry" />
        </mxCell>
        <mxCell id="9oEyipRwHzk4dOdtvLpS-51" value="" style="shape=partialRectangle;collapsible=0;dropTarget=0;pointerEvents=0;fillColor=none;top=0;left=0;bottom=0;right=0;points=[[0,0.5],[1,0.5]];portConstraint=eastwest;" parent="9oEyipRwHzk4dOdtvLpS-50" vertex="1">
          <mxGeometry y="30" width="210" height="30" as="geometry" />
        </mxCell>
        <mxCell id="9oEyipRwHzk4dOdtvLpS-52" value="PK" style="shape=partialRectangle;connectable=0;fillColor=none;top=0;left=0;bottom=0;right=0;editable=1;overflow=hidden;" parent="9oEyipRwHzk4dOdtvLpS-51" vertex="1">
          <mxGeometry width="20" height="30" as="geometry" />
        </mxCell>
        <mxCell id="9oEyipRwHzk4dOdtvLpS-53" value="hid   VARCHAR(255)" style="shape=partialRectangle;connectable=0;fillColor=none;top=0;left=0;bottom=0;right=0;align=left;spacingLeft=6;overflow=hidden;" parent="9oEyipRwHzk4dOdtvLpS-51" vertex="1">
          <mxGeometry x="20" width="190" height="30" as="geometry" />
        </mxCell>
        <mxCell id="Z6pBKh2m4rU8tc-z0iud-1" value="" style="shape=partialRectangle;collapsible=0;dropTarget=0;pointerEvents=0;fillColor=none;top=0;left=0;bottom=0;right=0;points=[[0,0.5],[1,0.5]];portConstraint=eastwest;" vertex="1" parent="9oEyipRwHzk4dOdtvLpS-50">
          <mxGeometry y="60" width="210" height="30" as="geometry" />
        </mxCell>
        <mxCell id="Z6pBKh2m4rU8tc-z0iud-2" value="" style="shape=partialRectangle;connectable=0;fillColor=none;top=0;left=0;bottom=0;right=0;editable=1;overflow=hidden;" vertex="1" parent="Z6pBKh2m4rU8tc-z0iud-1">
          <mxGeometry width="20" height="30" as="geometry" />
        </mxCell>
        <mxCell id="Z6pBKh2m4rU8tc-z0iud-3" value="buid   VARCHAR(255)" style="shape=partialRectangle;connectable=0;fillColor=none;top=0;left=0;bottom=0;right=0;align=left;spacingLeft=6;overflow=hidden;" vertex="1" parent="Z6pBKh2m4rU8tc-z0iud-1">
          <mxGeometry x="20" width="190" height="30" as="geometry" />
        </mxCell>
        <mxCell id="9oEyipRwHzk4dOdtvLpS-54" value="" style="shape=partialRectangle;collapsible=0;dropTarget=0;pointerEvents=0;fillColor=none;top=0;left=0;bottom=0;right=0;points=[[0,0.5],[1,0.5]];portConstraint=eastwest;" parent="9oEyipRwHzk4dOdtvLpS-50" vertex="1">
          <mxGeometry y="90" width="210" height="30" as="geometry" />
        </mxCell>
        <mxCell id="9oEyipRwHzk4dOdtvLpS-55" value="" style="shape=partialRectangle;connectable=0;fillColor=none;top=0;left=0;bottom=0;right=0;editable=1;overflow=hidden;" parent="9oEyipRwHzk4dOdtvLpS-54" vertex="1">
          <mxGeometry width="20" height="30" as="geometry" />
        </mxCell>
        <mxCell id="9oEyipRwHzk4dOdtvLpS-56" value="name   TEXT(50)" style="shape=partialRectangle;connectable=0;fillColor=none;top=0;left=0;bottom=0;right=0;align=left;spacingLeft=6;overflow=hidden;" parent="9oEyipRwHzk4dOdtvLpS-54" vertex="1">
          <mxGeometry x="20" width="190" height="30" as="geometry" />
        </mxCell>
        <mxCell id="9oEyipRwHzk4dOdtvLpS-57" value="" style="shape=partialRectangle;collapsible=0;dropTarget=0;pointerEvents=0;fillColor=none;top=0;left=0;bottom=0;right=0;points=[[0,0.5],[1,0.5]];portConstraint=eastwest;" parent="9oEyipRwHzk4dOdtvLpS-50" vertex="1">
          <mxGeometry y="120" width="210" height="30" as="geometry" />
        </mxCell>
        <mxCell id="9oEyipRwHzk4dOdtvLpS-58" value="" style="shape=partialRectangle;connectable=0;fillColor=none;top=0;left=0;bottom=0;right=0;editable=1;overflow=hidden;" parent="9oEyipRwHzk4dOdtvLpS-57" vertex="1">
          <mxGeometry width="20" height="30" as="geometry" />
        </mxCell>
        <mxCell id="9oEyipRwHzk4dOdtvLpS-59" value="location   TEXT(50)" style="shape=partialRectangle;connectable=0;fillColor=none;top=0;left=0;bottom=0;right=0;align=left;spacingLeft=6;overflow=hidden;" parent="9oEyipRwHzk4dOdtvLpS-57" vertex="1">
          <mxGeometry x="20" width="190" height="30" as="geometry" />
        </mxCell>
        <mxCell id="9oEyipRwHzk4dOdtvLpS-60" value="" style="shape=partialRectangle;collapsible=0;dropTarget=0;pointerEvents=0;fillColor=none;top=0;left=0;bottom=0;right=0;points=[[0,0.5],[1,0.5]];portConstraint=eastwest;" parent="9oEyipRwHzk4dOdtvLpS-50" vertex="1">
          <mxGeometry y="150" width="210" height="30" as="geometry" />
        </mxCell>
        <mxCell id="9oEyipRwHzk4dOdtvLpS-61" value="" style="shape=partialRectangle;connectable=0;fillColor=none;top=0;left=0;bottom=0;right=0;editable=1;overflow=hidden;" parent="9oEyipRwHzk4dOdtvLpS-60" vertex="1">
          <mxGeometry width="20" height="30" as="geometry" />
        </mxCell>
        <mxCell id="9oEyipRwHzk4dOdtvLpS-62" value="food   BOOLEAN" style="shape=partialRectangle;connectable=0;fillColor=none;top=0;left=0;bottom=0;right=0;align=left;spacingLeft=6;overflow=hidden;" parent="9oEyipRwHzk4dOdtvLpS-60" vertex="1">
          <mxGeometry x="20" width="190" height="30" as="geometry" />
        </mxCell>
        <mxCell id="9oEyipRwHzk4dOdtvLpS-69" value="" style="shape=partialRectangle;collapsible=0;dropTarget=0;pointerEvents=0;fillColor=none;top=0;left=0;bottom=0;right=0;points=[[0,0.5],[1,0.5]];portConstraint=eastwest;" parent="9oEyipRwHzk4dOdtvLpS-50" vertex="1">
          <mxGeometry y="180" width="210" height="30" as="geometry" />
        </mxCell>
        <mxCell id="9oEyipRwHzk4dOdtvLpS-70" value="" style="shape=partialRectangle;connectable=0;fillColor=none;top=0;left=0;bottom=0;right=0;editable=1;overflow=hidden;" parent="9oEyipRwHzk4dOdtvLpS-69" vertex="1">
          <mxGeometry width="20" height="30" as="geometry" />
        </mxCell>
        <mxCell id="9oEyipRwHzk4dOdtvLpS-71" value="available_rooms  INT(4)" style="shape=partialRectangle;connectable=0;fillColor=none;top=0;left=0;bottom=0;right=0;align=left;spacingLeft=6;overflow=hidden;" parent="9oEyipRwHzk4dOdtvLpS-69" vertex="1">
          <mxGeometry x="20" width="190" height="30" as="geometry" />
        </mxCell>
        <mxCell id="9oEyipRwHzk4dOdtvLpS-72" value="" style="shape=partialRectangle;collapsible=0;dropTarget=0;pointerEvents=0;fillColor=none;top=0;left=0;bottom=0;right=0;points=[[0,0.5],[1,0.5]];portConstraint=eastwest;" parent="9oEyipRwHzk4dOdtvLpS-50" vertex="1">
          <mxGeometry y="210" width="210" height="30" as="geometry" />
        </mxCell>
        <mxCell id="9oEyipRwHzk4dOdtvLpS-73" value="" style="shape=partialRectangle;connectable=0;fillColor=none;top=0;left=0;bottom=0;right=0;editable=1;overflow=hidden;" parent="9oEyipRwHzk4dOdtvLpS-72" vertex="1">
          <mxGeometry width="20" height="30" as="geometry" />
        </mxCell>
        <mxCell id="9oEyipRwHzk4dOdtvLpS-74" value="pet   BOOLEAN" style="shape=partialRectangle;connectable=0;fillColor=none;top=0;left=0;bottom=0;right=0;align=left;spacingLeft=6;overflow=hidden;" parent="9oEyipRwHzk4dOdtvLpS-72" vertex="1">
          <mxGeometry x="20" width="190" height="30" as="geometry" />
        </mxCell>
        <mxCell id="9oEyipRwHzk4dOdtvLpS-81" value="" style="shape=partialRectangle;collapsible=0;dropTarget=0;pointerEvents=0;fillColor=none;top=0;left=0;bottom=0;right=0;points=[[0,0.5],[1,0.5]];portConstraint=eastwest;" parent="9oEyipRwHzk4dOdtvLpS-50" vertex="1">
          <mxGeometry y="240" width="210" height="30" as="geometry" />
        </mxCell>
        <mxCell id="9oEyipRwHzk4dOdtvLpS-82" value="" style="shape=partialRectangle;connectable=0;fillColor=none;top=0;left=0;bottom=0;right=0;editable=1;overflow=hidden;" parent="9oEyipRwHzk4dOdtvLpS-81" vertex="1">
          <mxGeometry width="20" height="30" as="geometry" />
        </mxCell>
        <mxCell id="9oEyipRwHzk4dOdtvLpS-83" value="room_service   BOOLEAN" style="shape=partialRectangle;connectable=0;fillColor=none;top=0;left=0;bottom=0;right=0;align=left;spacingLeft=6;overflow=hidden;" parent="9oEyipRwHzk4dOdtvLpS-81" vertex="1">
          <mxGeometry x="20" width="190" height="30" as="geometry" />
        </mxCell>
        <mxCell id="9oEyipRwHzk4dOdtvLpS-78" value="" style="shape=partialRectangle;collapsible=0;dropTarget=0;pointerEvents=0;fillColor=none;top=0;left=0;bottom=0;right=0;points=[[0,0.5],[1,0.5]];portConstraint=eastwest;" parent="9oEyipRwHzk4dOdtvLpS-50" vertex="1">
          <mxGeometry y="270" width="210" height="30" as="geometry" />
        </mxCell>
        <mxCell id="9oEyipRwHzk4dOdtvLpS-79" value="" style="shape=partialRectangle;connectable=0;fillColor=none;top=0;left=0;bottom=0;right=0;editable=1;overflow=hidden;" parent="9oEyipRwHzk4dOdtvLpS-78" vertex="1">
          <mxGeometry width="20" height="30" as="geometry" />
        </mxCell>
        <mxCell id="9oEyipRwHzk4dOdtvLpS-80" value="photos   VARCHAR(255)" style="shape=partialRectangle;connectable=0;fillColor=none;top=0;left=0;bottom=0;right=0;align=left;spacingLeft=6;overflow=hidden;" parent="9oEyipRwHzk4dOdtvLpS-78" vertex="1">
          <mxGeometry x="20" width="190" height="30" as="geometry" />
        </mxCell>
        <mxCell id="9oEyipRwHzk4dOdtvLpS-75" value="" style="shape=partialRectangle;collapsible=0;dropTarget=0;pointerEvents=0;fillColor=none;top=0;left=0;bottom=0;right=0;points=[[0,0.5],[1,0.5]];portConstraint=eastwest;" parent="9oEyipRwHzk4dOdtvLpS-50" vertex="1">
          <mxGeometry y="300" width="210" height="30" as="geometry" />
        </mxCell>
        <mxCell id="9oEyipRwHzk4dOdtvLpS-76" value="" style="shape=partialRectangle;connectable=0;fillColor=none;top=0;left=0;bottom=0;right=0;editable=1;overflow=hidden;" parent="9oEyipRwHzk4dOdtvLpS-75" vertex="1">
          <mxGeometry width="20" height="30" as="geometry" />
        </mxCell>
        <mxCell id="9oEyipRwHzk4dOdtvLpS-77" value="desc    TEXT(1000)" style="shape=partialRectangle;connectable=0;fillColor=none;top=0;left=0;bottom=0;right=0;align=left;spacingLeft=6;overflow=hidden;" parent="9oEyipRwHzk4dOdtvLpS-75" vertex="1">
          <mxGeometry x="20" width="190" height="30" as="geometry" />
        </mxCell>
        <mxCell id="9oEyipRwHzk4dOdtvLpS-84" value="customer_list" style="shape=table;startSize=30;container=1;collapsible=1;childLayout=tableLayout;fixedRows=1;rowLines=0;fontStyle=1;align=center;resizeLast=1;" parent="1" vertex="1">
          <mxGeometry x="560" y="560" width="220" height="180" as="geometry">
            <mxRectangle x="360" y="670" width="110" height="30" as="alternateBounds" />
          </mxGeometry>
        </mxCell>
        <mxCell id="9oEyipRwHzk4dOdtvLpS-85" value="" style="shape=partialRectangle;collapsible=0;dropTarget=0;pointerEvents=0;fillColor=none;top=0;left=0;bottom=1;right=0;points=[[0,0.5],[1,0.5]];portConstraint=eastwest;" parent="9oEyipRwHzk4dOdtvLpS-84" vertex="1">
          <mxGeometry y="30" width="220" height="30" as="geometry" />
        </mxCell>
        <mxCell id="9oEyipRwHzk4dOdtvLpS-86" value="PK" style="shape=partialRectangle;connectable=0;fillColor=none;top=0;left=0;bottom=0;right=0;fontStyle=0;overflow=hidden;" parent="9oEyipRwHzk4dOdtvLpS-85" vertex="1">
          <mxGeometry width="20" height="30" as="geometry" />
        </mxCell>
        <mxCell id="9oEyipRwHzk4dOdtvLpS-87" value="cid   VARCHAR(255)" style="shape=partialRectangle;connectable=0;fillColor=none;top=0;left=0;bottom=0;right=0;align=left;spacingLeft=6;fontStyle=0;overflow=hidden;" parent="9oEyipRwHzk4dOdtvLpS-85" vertex="1">
          <mxGeometry x="20" width="200" height="30" as="geometry" />
        </mxCell>
        <mxCell id="9oEyipRwHzk4dOdtvLpS-88" value="" style="shape=partialRectangle;collapsible=0;dropTarget=0;pointerEvents=0;fillColor=none;top=0;left=0;bottom=1;right=0;points=[[0,0.5],[1,0.5]];portConstraint=eastwest;" parent="9oEyipRwHzk4dOdtvLpS-84" vertex="1">
          <mxGeometry y="60" width="220" height="30" as="geometry" />
        </mxCell>
        <mxCell id="9oEyipRwHzk4dOdtvLpS-89" value="" style="shape=partialRectangle;connectable=0;fillColor=none;top=0;left=0;bottom=0;right=0;fontStyle=0;overflow=hidden;" parent="9oEyipRwHzk4dOdtvLpS-88" vertex="1">
          <mxGeometry width="20" height="30" as="geometry" />
        </mxCell>
        <mxCell id="9oEyipRwHzk4dOdtvLpS-90" value="email   VARCHAR(255)" style="shape=partialRectangle;connectable=0;fillColor=none;top=0;left=0;bottom=0;right=0;align=left;spacingLeft=6;fontStyle=0;overflow=hidden;" parent="9oEyipRwHzk4dOdtvLpS-88" vertex="1">
          <mxGeometry x="20" width="200" height="30" as="geometry" />
        </mxCell>
        <mxCell id="9oEyipRwHzk4dOdtvLpS-91" value="" style="shape=partialRectangle;collapsible=0;dropTarget=0;pointerEvents=0;fillColor=none;top=0;left=0;bottom=0;right=0;points=[[0,0.5],[1,0.5]];portConstraint=eastwest;" parent="9oEyipRwHzk4dOdtvLpS-84" vertex="1">
          <mxGeometry y="90" width="220" height="30" as="geometry" />
        </mxCell>
        <mxCell id="9oEyipRwHzk4dOdtvLpS-92" value="" style="shape=partialRectangle;connectable=0;fillColor=none;top=0;left=0;bottom=0;right=0;editable=1;overflow=hidden;" parent="9oEyipRwHzk4dOdtvLpS-91" vertex="1">
          <mxGeometry width="20" height="30" as="geometry" />
        </mxCell>
        <mxCell id="9oEyipRwHzk4dOdtvLpS-93" value="pass   VARCHAR(255)" style="shape=partialRectangle;connectable=0;fillColor=none;top=0;left=0;bottom=0;right=0;align=left;spacingLeft=6;overflow=hidden;" parent="9oEyipRwHzk4dOdtvLpS-91" vertex="1">
          <mxGeometry x="20" width="200" height="30" as="geometry" />
        </mxCell>
        <mxCell id="9oEyipRwHzk4dOdtvLpS-94" value="" style="shape=partialRectangle;collapsible=0;dropTarget=0;pointerEvents=0;fillColor=none;top=0;left=0;bottom=0;right=0;points=[[0,0.5],[1,0.5]];portConstraint=eastwest;" parent="9oEyipRwHzk4dOdtvLpS-84" vertex="1">
          <mxGeometry y="120" width="220" height="30" as="geometry" />
        </mxCell>
        <mxCell id="9oEyipRwHzk4dOdtvLpS-95" value="" style="shape=partialRectangle;connectable=0;fillColor=none;top=0;left=0;bottom=0;right=0;editable=1;overflow=hidden;" parent="9oEyipRwHzk4dOdtvLpS-94" vertex="1">
          <mxGeometry width="20" height="30" as="geometry" />
        </mxCell>
        <mxCell id="9oEyipRwHzk4dOdtvLpS-96" value="name   TEXT(100)" style="shape=partialRectangle;connectable=0;fillColor=none;top=0;left=0;bottom=0;right=0;align=left;spacingLeft=6;overflow=hidden;" parent="9oEyipRwHzk4dOdtvLpS-94" vertex="1">
          <mxGeometry x="20" width="200" height="30" as="geometry" />
        </mxCell>
        <mxCell id="JQp8mwMekfqaITCJmqOn-1" value="" style="shape=partialRectangle;collapsible=0;dropTarget=0;pointerEvents=0;fillColor=none;top=0;left=0;bottom=0;right=0;points=[[0,0.5],[1,0.5]];portConstraint=eastwest;" parent="9oEyipRwHzk4dOdtvLpS-84" vertex="1">
          <mxGeometry y="150" width="220" height="30" as="geometry" />
        </mxCell>
        <mxCell id="JQp8mwMekfqaITCJmqOn-2" value="" style="shape=partialRectangle;connectable=0;fillColor=none;top=0;left=0;bottom=0;right=0;editable=1;overflow=hidden;" parent="JQp8mwMekfqaITCJmqOn-1" vertex="1">
          <mxGeometry width="20" height="30" as="geometry" />
        </mxCell>
        <mxCell id="JQp8mwMekfqaITCJmqOn-3" value="contact   INT(10)" style="shape=partialRectangle;connectable=0;fillColor=none;top=0;left=0;bottom=0;right=0;align=left;spacingLeft=6;overflow=hidden;" parent="JQp8mwMekfqaITCJmqOn-1" vertex="1">
          <mxGeometry x="20" width="200" height="30" as="geometry" />
        </mxCell>
        <mxCell id="9oEyipRwHzk4dOdtvLpS-103" value="business_list" style="shape=table;startSize=30;container=1;collapsible=1;childLayout=tableLayout;fixedRows=1;rowLines=0;fontStyle=1;align=center;resizeLast=1;" parent="1" vertex="1">
          <mxGeometry x="690" y="350" width="200" height="120" as="geometry" />
        </mxCell>
        <mxCell id="9oEyipRwHzk4dOdtvLpS-104" value="" style="shape=partialRectangle;collapsible=0;dropTarget=0;pointerEvents=0;fillColor=none;top=0;left=0;bottom=1;right=0;points=[[0,0.5],[1,0.5]];portConstraint=eastwest;" parent="9oEyipRwHzk4dOdtvLpS-103" vertex="1">
          <mxGeometry y="30" width="200" height="30" as="geometry" />
        </mxCell>
        <mxCell id="9oEyipRwHzk4dOdtvLpS-105" value="PK" style="shape=partialRectangle;connectable=0;fillColor=none;top=0;left=0;bottom=0;right=0;fontStyle=0;overflow=hidden;" parent="9oEyipRwHzk4dOdtvLpS-104" vertex="1">
          <mxGeometry width="20" height="30" as="geometry" />
        </mxCell>
        <mxCell id="9oEyipRwHzk4dOdtvLpS-106" value="buid   VARCHAR(255)" style="shape=partialRectangle;connectable=0;fillColor=none;top=0;left=0;bottom=0;right=0;align=left;spacingLeft=6;fontStyle=0;overflow=hidden;" parent="9oEyipRwHzk4dOdtvLpS-104" vertex="1">
          <mxGeometry x="20" width="180" height="30" as="geometry" />
        </mxCell>
        <mxCell id="9oEyipRwHzk4dOdtvLpS-107" value="" style="shape=partialRectangle;collapsible=0;dropTarget=0;pointerEvents=0;fillColor=none;top=0;left=0;bottom=1;right=0;points=[[0,0.5],[1,0.5]];portConstraint=eastwest;" parent="9oEyipRwHzk4dOdtvLpS-103" vertex="1">
          <mxGeometry y="60" width="200" height="30" as="geometry" />
        </mxCell>
        <mxCell id="9oEyipRwHzk4dOdtvLpS-108" value="" style="shape=partialRectangle;connectable=0;fillColor=none;top=0;left=0;bottom=0;right=0;fontStyle=0;overflow=hidden;" parent="9oEyipRwHzk4dOdtvLpS-107" vertex="1">
          <mxGeometry width="20" height="30" as="geometry" />
        </mxCell>
        <mxCell id="9oEyipRwHzk4dOdtvLpS-109" value="email   VARCHAR(255)" style="shape=partialRectangle;connectable=0;fillColor=none;top=0;left=0;bottom=0;right=0;align=left;spacingLeft=6;fontStyle=0;overflow=hidden;shadow=0;" parent="9oEyipRwHzk4dOdtvLpS-107" vertex="1">
          <mxGeometry x="20" width="180" height="30" as="geometry" />
        </mxCell>
        <mxCell id="9oEyipRwHzk4dOdtvLpS-110" value="" style="shape=partialRectangle;collapsible=0;dropTarget=0;pointerEvents=0;fillColor=none;top=0;left=0;bottom=0;right=0;points=[[0,0.5],[1,0.5]];portConstraint=eastwest;" parent="9oEyipRwHzk4dOdtvLpS-103" vertex="1">
          <mxGeometry y="90" width="200" height="30" as="geometry" />
        </mxCell>
        <mxCell id="9oEyipRwHzk4dOdtvLpS-111" value="" style="shape=partialRectangle;connectable=0;fillColor=none;top=0;left=0;bottom=0;right=0;editable=1;overflow=hidden;" parent="9oEyipRwHzk4dOdtvLpS-110" vertex="1">
          <mxGeometry width="20" height="30" as="geometry" />
        </mxCell>
        <mxCell id="9oEyipRwHzk4dOdtvLpS-112" value="pass   VARCHAR(255)" style="shape=partialRectangle;connectable=0;fillColor=none;top=0;left=0;bottom=0;right=0;align=left;spacingLeft=6;overflow=hidden;" parent="9oEyipRwHzk4dOdtvLpS-110" vertex="1">
          <mxGeometry x="20" width="180" height="30" as="geometry" />
        </mxCell>
        <mxCell id="9oEyipRwHzk4dOdtvLpS-119" value="room_list" style="shape=table;startSize=30;container=1;collapsible=1;childLayout=tableLayout;fixedRows=1;rowLines=0;fontStyle=1;align=center;resizeLast=1;" parent="1" vertex="1">
          <mxGeometry x="1380" y="160" width="200" height="300" as="geometry" />
        </mxCell>
        <mxCell id="9oEyipRwHzk4dOdtvLpS-120" value="" style="shape=partialRectangle;collapsible=0;dropTarget=0;pointerEvents=0;fillColor=none;top=0;left=0;bottom=1;right=0;points=[[0,0.5],[1,0.5]];portConstraint=eastwest;" parent="9oEyipRwHzk4dOdtvLpS-119" vertex="1">
          <mxGeometry y="30" width="200" height="30" as="geometry" />
        </mxCell>
        <mxCell id="9oEyipRwHzk4dOdtvLpS-121" value="PK" style="shape=partialRectangle;connectable=0;fillColor=none;top=0;left=0;bottom=0;right=0;fontStyle=0;overflow=hidden;" parent="9oEyipRwHzk4dOdtvLpS-120" vertex="1">
          <mxGeometry width="20" height="30" as="geometry" />
        </mxCell>
        <mxCell id="9oEyipRwHzk4dOdtvLpS-122" value="rid   VARCHAR(255)" style="shape=partialRectangle;connectable=0;fillColor=none;top=0;left=0;bottom=0;right=0;align=left;spacingLeft=6;fontStyle=0;overflow=hidden;" parent="9oEyipRwHzk4dOdtvLpS-120" vertex="1">
          <mxGeometry x="20" width="180" height="30" as="geometry" />
        </mxCell>
        <mxCell id="9oEyipRwHzk4dOdtvLpS-123" value="" style="shape=partialRectangle;collapsible=0;dropTarget=0;pointerEvents=0;fillColor=none;top=0;left=0;bottom=0;right=0;points=[[0,0.5],[1,0.5]];portConstraint=eastwest;" parent="9oEyipRwHzk4dOdtvLpS-119" vertex="1">
          <mxGeometry y="60" width="200" height="30" as="geometry" />
        </mxCell>
        <mxCell id="9oEyipRwHzk4dOdtvLpS-124" value="PK" style="shape=partialRectangle;connectable=0;fillColor=none;top=0;left=0;bottom=0;right=0;editable=1;overflow=hidden;" parent="9oEyipRwHzk4dOdtvLpS-123" vertex="1">
          <mxGeometry width="20" height="30" as="geometry" />
        </mxCell>
        <mxCell id="9oEyipRwHzk4dOdtvLpS-125" value="hid   VARCHAR(255)" style="shape=partialRectangle;connectable=0;fillColor=none;top=0;left=0;bottom=0;right=0;align=left;spacingLeft=6;overflow=hidden;" parent="9oEyipRwHzk4dOdtvLpS-123" vertex="1">
          <mxGeometry x="20" width="180" height="30" as="geometry" />
        </mxCell>
        <mxCell id="9oEyipRwHzk4dOdtvLpS-126" value="" style="shape=partialRectangle;collapsible=0;dropTarget=0;pointerEvents=0;fillColor=none;top=0;left=0;bottom=0;right=0;points=[[0,0.5],[1,0.5]];portConstraint=eastwest;" parent="9oEyipRwHzk4dOdtvLpS-119" vertex="1">
          <mxGeometry y="90" width="200" height="30" as="geometry" />
        </mxCell>
        <mxCell id="9oEyipRwHzk4dOdtvLpS-127" value="" style="shape=partialRectangle;connectable=0;fillColor=none;top=0;left=0;bottom=0;right=0;editable=1;overflow=hidden;" parent="9oEyipRwHzk4dOdtvLpS-126" vertex="1">
          <mxGeometry width="20" height="30" as="geometry" />
        </mxCell>
        <mxCell id="9oEyipRwHzk4dOdtvLpS-128" value="type   TEXT(20)" style="shape=partialRectangle;connectable=0;fillColor=none;top=0;left=0;bottom=0;right=0;align=left;spacingLeft=6;overflow=hidden;" parent="9oEyipRwHzk4dOdtvLpS-126" vertex="1">
          <mxGeometry x="20" width="180" height="30" as="geometry" />
        </mxCell>
        <mxCell id="9oEyipRwHzk4dOdtvLpS-129" value="" style="shape=partialRectangle;collapsible=0;dropTarget=0;pointerEvents=0;fillColor=none;top=0;left=0;bottom=0;right=0;points=[[0,0.5],[1,0.5]];portConstraint=eastwest;" parent="9oEyipRwHzk4dOdtvLpS-119" vertex="1">
          <mxGeometry y="120" width="200" height="30" as="geometry" />
        </mxCell>
        <mxCell id="9oEyipRwHzk4dOdtvLpS-130" value="" style="shape=partialRectangle;connectable=0;fillColor=none;top=0;left=0;bottom=0;right=0;editable=1;overflow=hidden;" parent="9oEyipRwHzk4dOdtvLpS-129" vertex="1">
          <mxGeometry width="20" height="30" as="geometry" />
        </mxCell>
        <mxCell id="9oEyipRwHzk4dOdtvLpS-131" value="space   INT(5)" style="shape=partialRectangle;connectable=0;fillColor=none;top=0;left=0;bottom=0;right=0;align=left;spacingLeft=6;overflow=hidden;" parent="9oEyipRwHzk4dOdtvLpS-129" vertex="1">
          <mxGeometry x="20" width="180" height="30" as="geometry" />
        </mxCell>
        <mxCell id="9oEyipRwHzk4dOdtvLpS-132" value="" style="shape=partialRectangle;collapsible=0;dropTarget=0;pointerEvents=0;fillColor=none;top=0;left=0;bottom=0;right=0;points=[[0,0.5],[1,0.5]];portConstraint=eastwest;" parent="9oEyipRwHzk4dOdtvLpS-119" vertex="1">
          <mxGeometry y="150" width="200" height="30" as="geometry" />
        </mxCell>
        <mxCell id="9oEyipRwHzk4dOdtvLpS-133" value="" style="shape=partialRectangle;connectable=0;fillColor=none;top=0;left=0;bottom=0;right=0;editable=1;overflow=hidden;" parent="9oEyipRwHzk4dOdtvLpS-132" vertex="1">
          <mxGeometry width="20" height="30" as="geometry" />
        </mxCell>
        <mxCell id="9oEyipRwHzk4dOdtvLpS-134" value="beds   INT(1)" style="shape=partialRectangle;connectable=0;fillColor=none;top=0;left=0;bottom=0;right=0;align=left;spacingLeft=6;overflow=hidden;" parent="9oEyipRwHzk4dOdtvLpS-132" vertex="1">
          <mxGeometry x="20" width="180" height="30" as="geometry" />
        </mxCell>
        <mxCell id="9oEyipRwHzk4dOdtvLpS-135" value="" style="shape=partialRectangle;collapsible=0;dropTarget=0;pointerEvents=0;fillColor=none;top=0;left=0;bottom=0;right=0;points=[[0,0.5],[1,0.5]];portConstraint=eastwest;" parent="9oEyipRwHzk4dOdtvLpS-119" vertex="1">
          <mxGeometry y="180" width="200" height="30" as="geometry" />
        </mxCell>
        <mxCell id="9oEyipRwHzk4dOdtvLpS-136" value="" style="shape=partialRectangle;connectable=0;fillColor=none;top=0;left=0;bottom=0;right=0;editable=1;overflow=hidden;" parent="9oEyipRwHzk4dOdtvLpS-135" vertex="1">
          <mxGeometry width="20" height="30" as="geometry" />
        </mxCell>
        <mxCell id="9oEyipRwHzk4dOdtvLpS-137" value="ac   BOOLEAN" style="shape=partialRectangle;connectable=0;fillColor=none;top=0;left=0;bottom=0;right=0;align=left;spacingLeft=6;overflow=hidden;" parent="9oEyipRwHzk4dOdtvLpS-135" vertex="1">
          <mxGeometry x="20" width="180" height="30" as="geometry" />
        </mxCell>
        <mxCell id="9oEyipRwHzk4dOdtvLpS-138" value="" style="shape=partialRectangle;collapsible=0;dropTarget=0;pointerEvents=0;fillColor=none;top=0;left=0;bottom=0;right=0;points=[[0,0.5],[1,0.5]];portConstraint=eastwest;" parent="9oEyipRwHzk4dOdtvLpS-119" vertex="1">
          <mxGeometry y="210" width="200" height="30" as="geometry" />
        </mxCell>
        <mxCell id="9oEyipRwHzk4dOdtvLpS-139" value="" style="shape=partialRectangle;connectable=0;fillColor=none;top=0;left=0;bottom=0;right=0;editable=1;overflow=hidden;" parent="9oEyipRwHzk4dOdtvLpS-138" vertex="1">
          <mxGeometry width="20" height="30" as="geometry" />
        </mxCell>
        <mxCell id="9oEyipRwHzk4dOdtvLpS-140" value="placing   TEXT(20)" style="shape=partialRectangle;connectable=0;fillColor=none;top=0;left=0;bottom=0;right=0;align=left;spacingLeft=6;overflow=hidden;" parent="9oEyipRwHzk4dOdtvLpS-138" vertex="1">
          <mxGeometry x="20" width="180" height="30" as="geometry" />
        </mxCell>
        <mxCell id="9oEyipRwHzk4dOdtvLpS-141" value="" style="shape=partialRectangle;collapsible=0;dropTarget=0;pointerEvents=0;fillColor=none;top=0;left=0;bottom=0;right=0;points=[[0,0.5],[1,0.5]];portConstraint=eastwest;" parent="9oEyipRwHzk4dOdtvLpS-119" vertex="1">
          <mxGeometry y="240" width="200" height="30" as="geometry" />
        </mxCell>
        <mxCell id="9oEyipRwHzk4dOdtvLpS-142" value="" style="shape=partialRectangle;connectable=0;fillColor=none;top=0;left=0;bottom=0;right=0;editable=1;overflow=hidden;" parent="9oEyipRwHzk4dOdtvLpS-141" vertex="1">
          <mxGeometry width="20" height="30" as="geometry" />
        </mxCell>
        <mxCell id="9oEyipRwHzk4dOdtvLpS-143" value="cost   INT(6)" style="shape=partialRectangle;connectable=0;fillColor=none;top=0;left=0;bottom=0;right=0;align=left;spacingLeft=6;overflow=hidden;" parent="9oEyipRwHzk4dOdtvLpS-141" vertex="1">
          <mxGeometry x="20" width="180" height="30" as="geometry" />
        </mxCell>
        <mxCell id="9oEyipRwHzk4dOdtvLpS-241" value="" style="shape=partialRectangle;collapsible=0;dropTarget=0;pointerEvents=0;fillColor=none;top=0;left=0;bottom=0;right=0;points=[[0,0.5],[1,0.5]];portConstraint=eastwest;" parent="9oEyipRwHzk4dOdtvLpS-119" vertex="1">
          <mxGeometry y="270" width="200" height="30" as="geometry" />
        </mxCell>
        <mxCell id="9oEyipRwHzk4dOdtvLpS-242" value="" style="shape=partialRectangle;connectable=0;fillColor=none;top=0;left=0;bottom=0;right=0;editable=1;overflow=hidden;" parent="9oEyipRwHzk4dOdtvLpS-241" vertex="1">
          <mxGeometry width="20" height="30" as="geometry" />
        </mxCell>
        <mxCell id="9oEyipRwHzk4dOdtvLpS-243" value="islisted   BOOLEAN" style="shape=partialRectangle;connectable=0;fillColor=none;top=0;left=0;bottom=0;right=0;align=left;spacingLeft=6;overflow=hidden;" parent="9oEyipRwHzk4dOdtvLpS-241" vertex="1">
          <mxGeometry x="20" width="180" height="30" as="geometry" />
        </mxCell>
        <mxCell id="9oEyipRwHzk4dOdtvLpS-158" value="booked_rooms" style="shape=table;startSize=30;container=1;collapsible=1;childLayout=tableLayout;fixedRows=1;rowLines=0;fontStyle=1;align=center;resizeLast=1;" parent="1" vertex="1">
          <mxGeometry x="850" y="560" width="200" height="90" as="geometry" />
        </mxCell>
        <mxCell id="9oEyipRwHzk4dOdtvLpS-159" value="" style="shape=partialRectangle;collapsible=0;dropTarget=0;pointerEvents=0;fillColor=none;top=0;left=0;bottom=1;right=0;points=[[0,0.5],[1,0.5]];portConstraint=eastwest;" parent="9oEyipRwHzk4dOdtvLpS-158" vertex="1">
          <mxGeometry y="30" width="200" height="30" as="geometry" />
        </mxCell>
        <mxCell id="9oEyipRwHzk4dOdtvLpS-160" value="PK" style="shape=partialRectangle;connectable=0;fillColor=none;top=0;left=0;bottom=0;right=0;fontStyle=0;overflow=hidden;" parent="9oEyipRwHzk4dOdtvLpS-159" vertex="1">
          <mxGeometry width="20" height="30" as="geometry" />
        </mxCell>
        <mxCell id="9oEyipRwHzk4dOdtvLpS-161" value="cid  VARCHAR(255)" style="shape=partialRectangle;connectable=0;fillColor=none;top=0;left=0;bottom=0;right=0;align=left;spacingLeft=6;fontStyle=0;overflow=hidden;" parent="9oEyipRwHzk4dOdtvLpS-159" vertex="1">
          <mxGeometry x="20" width="180" height="30" as="geometry" />
        </mxCell>
        <mxCell id="9oEyipRwHzk4dOdtvLpS-162" value="" style="shape=partialRectangle;collapsible=0;dropTarget=0;pointerEvents=0;fillColor=none;top=0;left=0;bottom=1;right=0;points=[[0,0.5],[1,0.5]];portConstraint=eastwest;" parent="9oEyipRwHzk4dOdtvLpS-158" vertex="1">
          <mxGeometry y="60" width="200" height="30" as="geometry" />
        </mxCell>
        <mxCell id="9oEyipRwHzk4dOdtvLpS-163" value="PK" style="shape=partialRectangle;connectable=0;fillColor=none;top=0;left=0;bottom=0;right=0;fontStyle=0;overflow=hidden;" parent="9oEyipRwHzk4dOdtvLpS-162" vertex="1">
          <mxGeometry width="20" height="30" as="geometry" />
        </mxCell>
        <mxCell id="9oEyipRwHzk4dOdtvLpS-164" value="bid  VARCHAR(255)" style="shape=partialRectangle;connectable=0;fillColor=none;top=0;left=0;bottom=0;right=0;align=left;spacingLeft=6;fontStyle=0;overflow=hidden;" parent="9oEyipRwHzk4dOdtvLpS-162" vertex="1">
          <mxGeometry x="20" width="180" height="30" as="geometry" />
        </mxCell>
        <mxCell id="9oEyipRwHzk4dOdtvLpS-218" value="Booked_Room_info" style="shape=table;startSize=30;container=1;collapsible=1;childLayout=tableLayout;fixedRows=1;rowLines=0;fontStyle=1;align=center;resizeLast=1;" parent="1" vertex="1">
          <mxGeometry x="1100" y="590" width="220" height="240" as="geometry" />
        </mxCell>
        <mxCell id="hf0RXOYRYlcpUUbahjFG-20" value="" style="shape=partialRectangle;collapsible=0;dropTarget=0;pointerEvents=0;fillColor=none;top=0;left=0;bottom=1;right=0;points=[[0,0.5],[1,0.5]];portConstraint=eastwest;" parent="9oEyipRwHzk4dOdtvLpS-218" vertex="1">
          <mxGeometry y="30" width="220" height="30" as="geometry" />
        </mxCell>
        <mxCell id="hf0RXOYRYlcpUUbahjFG-21" value="PK" style="shape=partialRectangle;connectable=0;fillColor=none;top=0;left=0;bottom=0;right=0;fontStyle=0;overflow=hidden;" parent="hf0RXOYRYlcpUUbahjFG-20" vertex="1">
          <mxGeometry width="20" height="30" as="geometry" />
        </mxCell>
        <mxCell id="hf0RXOYRYlcpUUbahjFG-22" value="bid   VARCHAR(255)" style="shape=partialRectangle;connectable=0;fillColor=none;top=0;left=0;bottom=0;right=0;align=left;spacingLeft=6;fontStyle=0;overflow=hidden;" parent="hf0RXOYRYlcpUUbahjFG-20" vertex="1">
          <mxGeometry x="20" width="200" height="30" as="geometry" />
        </mxCell>
        <mxCell id="9oEyipRwHzk4dOdtvLpS-219" value="" style="shape=partialRectangle;collapsible=0;dropTarget=0;pointerEvents=0;fillColor=none;top=0;left=0;bottom=1;right=0;points=[[0,0.5],[1,0.5]];portConstraint=eastwest;" parent="9oEyipRwHzk4dOdtvLpS-218" vertex="1">
          <mxGeometry y="60" width="220" height="30" as="geometry" />
        </mxCell>
        <mxCell id="9oEyipRwHzk4dOdtvLpS-220" value="" style="shape=partialRectangle;connectable=0;fillColor=none;top=0;left=0;bottom=0;right=0;fontStyle=0;overflow=hidden;" parent="9oEyipRwHzk4dOdtvLpS-219" vertex="1">
          <mxGeometry width="20" height="30" as="geometry" />
        </mxCell>
        <mxCell id="9oEyipRwHzk4dOdtvLpS-221" value="rid   VARCHAR(255)" style="shape=partialRectangle;connectable=0;fillColor=none;top=0;left=0;bottom=0;right=0;align=left;spacingLeft=6;fontStyle=0;overflow=hidden;" parent="9oEyipRwHzk4dOdtvLpS-219" vertex="1">
          <mxGeometry x="20" width="200" height="30" as="geometry" />
        </mxCell>
        <mxCell id="hf0RXOYRYlcpUUbahjFG-23" value="" style="shape=partialRectangle;collapsible=0;dropTarget=0;pointerEvents=0;fillColor=none;top=0;left=0;bottom=1;right=0;points=[[0,0.5],[1,0.5]];portConstraint=eastwest;" parent="9oEyipRwHzk4dOdtvLpS-218" vertex="1">
          <mxGeometry y="90" width="220" height="30" as="geometry" />
        </mxCell>
        <mxCell id="hf0RXOYRYlcpUUbahjFG-24" value="" style="shape=partialRectangle;connectable=0;fillColor=none;top=0;left=0;bottom=0;right=0;fontStyle=0;overflow=hidden;" parent="hf0RXOYRYlcpUUbahjFG-23" vertex="1">
          <mxGeometry width="20" height="30" as="geometry" />
        </mxCell>
        <mxCell id="hf0RXOYRYlcpUUbahjFG-25" value="hid   VARCHAR(255)" style="shape=partialRectangle;connectable=0;fillColor=none;top=0;left=0;bottom=0;right=0;align=left;spacingLeft=6;fontStyle=0;overflow=hidden;" parent="hf0RXOYRYlcpUUbahjFG-23" vertex="1">
          <mxGeometry x="20" width="200" height="30" as="geometry" />
        </mxCell>
        <mxCell id="9oEyipRwHzk4dOdtvLpS-222" value="" style="shape=partialRectangle;collapsible=0;dropTarget=0;pointerEvents=0;fillColor=none;top=0;left=0;bottom=0;right=0;points=[[0,0.5],[1,0.5]];portConstraint=eastwest;" parent="9oEyipRwHzk4dOdtvLpS-218" vertex="1">
          <mxGeometry y="120" width="220" height="30" as="geometry" />
        </mxCell>
        <mxCell id="9oEyipRwHzk4dOdtvLpS-223" value="" style="shape=partialRectangle;connectable=0;fillColor=none;top=0;left=0;bottom=0;right=0;editable=1;overflow=hidden;" parent="9oEyipRwHzk4dOdtvLpS-222" vertex="1">
          <mxGeometry width="20" height="30" as="geometry" />
        </mxCell>
        <mxCell id="9oEyipRwHzk4dOdtvLpS-224" value="from   DATETIME" style="shape=partialRectangle;connectable=0;fillColor=none;top=0;left=0;bottom=0;right=0;align=left;spacingLeft=6;overflow=hidden;" parent="9oEyipRwHzk4dOdtvLpS-222" vertex="1">
          <mxGeometry x="20" width="200" height="30" as="geometry" />
        </mxCell>
        <mxCell id="9oEyipRwHzk4dOdtvLpS-225" value="" style="shape=partialRectangle;collapsible=0;dropTarget=0;pointerEvents=0;fillColor=none;top=0;left=0;bottom=0;right=0;points=[[0,0.5],[1,0.5]];portConstraint=eastwest;" parent="9oEyipRwHzk4dOdtvLpS-218" vertex="1">
          <mxGeometry y="150" width="220" height="30" as="geometry" />
        </mxCell>
        <mxCell id="9oEyipRwHzk4dOdtvLpS-226" value="" style="shape=partialRectangle;connectable=0;fillColor=none;top=0;left=0;bottom=0;right=0;editable=1;overflow=hidden;" parent="9oEyipRwHzk4dOdtvLpS-225" vertex="1">
          <mxGeometry width="20" height="30" as="geometry" />
        </mxCell>
        <mxCell id="9oEyipRwHzk4dOdtvLpS-227" value="to   DATETIME" style="shape=partialRectangle;connectable=0;fillColor=none;top=0;left=0;bottom=0;right=0;align=left;spacingLeft=6;overflow=hidden;" parent="9oEyipRwHzk4dOdtvLpS-225" vertex="1">
          <mxGeometry x="20" width="200" height="30" as="geometry" />
        </mxCell>
        <mxCell id="9oEyipRwHzk4dOdtvLpS-228" value="" style="shape=partialRectangle;collapsible=0;dropTarget=0;pointerEvents=0;fillColor=none;top=0;left=0;bottom=0;right=0;points=[[0,0.5],[1,0.5]];portConstraint=eastwest;" parent="9oEyipRwHzk4dOdtvLpS-218" vertex="1">
          <mxGeometry y="180" width="220" height="30" as="geometry" />
        </mxCell>
        <mxCell id="9oEyipRwHzk4dOdtvLpS-229" value="" style="shape=partialRectangle;connectable=0;fillColor=none;top=0;left=0;bottom=0;right=0;editable=1;overflow=hidden;" parent="9oEyipRwHzk4dOdtvLpS-228" vertex="1">
          <mxGeometry width="20" height="30" as="geometry" />
        </mxCell>
        <mxCell id="9oEyipRwHzk4dOdtvLpS-230" value="approval  VARCHAR(255)" style="shape=partialRectangle;connectable=0;fillColor=none;top=0;left=0;bottom=0;right=0;align=left;spacingLeft=6;overflow=hidden;" parent="9oEyipRwHzk4dOdtvLpS-228" vertex="1">
          <mxGeometry x="20" width="200" height="30" as="geometry" />
        </mxCell>
        <mxCell id="9oEyipRwHzk4dOdtvLpS-231" value="" style="shape=partialRectangle;collapsible=0;dropTarget=0;pointerEvents=0;fillColor=none;top=0;left=0;bottom=0;right=0;points=[[0,0.5],[1,0.5]];portConstraint=eastwest;" parent="9oEyipRwHzk4dOdtvLpS-218" vertex="1">
          <mxGeometry y="210" width="220" height="30" as="geometry" />
        </mxCell>
        <mxCell id="9oEyipRwHzk4dOdtvLpS-232" value="" style="shape=partialRectangle;connectable=0;fillColor=none;top=0;left=0;bottom=0;right=0;editable=1;overflow=hidden;" parent="9oEyipRwHzk4dOdtvLpS-231" vertex="1">
          <mxGeometry width="20" height="30" as="geometry" />
        </mxCell>
        <mxCell id="9oEyipRwHzk4dOdtvLpS-233" value="pstatus  BOOLEAN" style="shape=partialRectangle;connectable=0;fillColor=none;top=0;left=0;bottom=0;right=0;align=left;spacingLeft=6;overflow=hidden;" parent="9oEyipRwHzk4dOdtvLpS-231" vertex="1">
          <mxGeometry x="20" width="200" height="30" as="geometry" />
        </mxCell>
        <mxCell id="9oEyipRwHzk4dOdtvLpS-244" value="" style="edgeStyle=elbowEdgeStyle;fontSize=12;html=1;endArrow=ERmandOne;startArrow=ERmandOne;entryX=0;entryY=0.5;entryDx=0;entryDy=0;" parent="1" target="9oEyipRwHzk4dOdtvLpS-123" edge="1">
          <mxGeometry width="100" height="100" relative="1" as="geometry">
            <mxPoint x="1250" y="239" as="sourcePoint" />
            <mxPoint x="1410" y="300" as="targetPoint" />
          </mxGeometry>
        </mxCell>
        <mxCell id="9oEyipRwHzk4dOdtvLpS-259" value="" style="edgeStyle=elbowEdgeStyle;fontSize=12;html=1;endArrow=ERoneToMany;exitX=1;exitY=0.5;exitDx=0;exitDy=0;entryX=0;entryY=0.5;entryDx=0;entryDy=0;" parent="1" source="9oEyipRwHzk4dOdtvLpS-219" target="9oEyipRwHzk4dOdtvLpS-120" edge="1">
          <mxGeometry width="100" height="100" relative="1" as="geometry">
            <mxPoint x="1120" y="950" as="sourcePoint" />
            <mxPoint x="1220" y="850" as="targetPoint" />
            <Array as="points">
              <mxPoint x="1360" y="540" />
              <mxPoint x="1340" y="570" />
              <mxPoint x="1290" y="600" />
              <mxPoint x="1370" y="610" />
            </Array>
          </mxGeometry>
        </mxCell>
        <mxCell id="hf0RXOYRYlcpUUbahjFG-27" value="" style="edgeStyle=elbowEdgeStyle;fontSize=12;html=1;endArrow=ERmandOne;startArrow=ERmandOne;exitX=1;exitY=0.5;exitDx=0;exitDy=0;" parent="1" source="hf0RXOYRYlcpUUbahjFG-23" edge="1">
          <mxGeometry width="100" height="100" relative="1" as="geometry">
            <mxPoint x="1290" y="960" as="sourcePoint" />
            <mxPoint x="1250" y="257" as="targetPoint" />
            <Array as="points">
              <mxPoint x="1340" y="550" />
              <mxPoint x="1330" y="540" />
              <mxPoint x="1310" y="780" />
              <mxPoint x="1300" y="550" />
              <mxPoint x="1280" y="560" />
              <mxPoint x="1330" y="720" />
              <mxPoint x="1300" y="690" />
            </Array>
          </mxGeometry>
        </mxCell>
        <mxCell id="JQp8mwMekfqaITCJmqOn-7" value="Review" style="shape=table;startSize=30;container=1;collapsible=1;childLayout=tableLayout;fixedRows=1;rowLines=0;fontStyle=1;align=center;resizeLast=1;" parent="1" vertex="1">
          <mxGeometry x="160" y="560" width="210" height="210" as="geometry" />
        </mxCell>
        <mxCell id="JQp8mwMekfqaITCJmqOn-8" value="" style="shape=partialRectangle;collapsible=0;dropTarget=0;pointerEvents=0;fillColor=none;top=0;left=0;bottom=1;right=0;points=[[0,0.5],[1,0.5]];portConstraint=eastwest;" parent="JQp8mwMekfqaITCJmqOn-7" vertex="1">
          <mxGeometry y="30" width="210" height="30" as="geometry" />
        </mxCell>
        <mxCell id="JQp8mwMekfqaITCJmqOn-9" value="PK" style="shape=partialRectangle;connectable=0;fillColor=none;top=0;left=0;bottom=0;right=0;fontStyle=0;overflow=hidden;" parent="JQp8mwMekfqaITCJmqOn-8" vertex="1">
          <mxGeometry width="20" height="30" as="geometry" />
        </mxCell>
        <mxCell id="JQp8mwMekfqaITCJmqOn-10" value="cid  VARCHAR(255)" style="shape=partialRectangle;connectable=0;fillColor=none;top=0;left=0;bottom=0;right=0;align=left;spacingLeft=6;fontStyle=0;overflow=hidden;" parent="JQp8mwMekfqaITCJmqOn-8" vertex="1">
          <mxGeometry x="20" width="190" height="30" as="geometry" />
        </mxCell>
        <mxCell id="JQp8mwMekfqaITCJmqOn-14" value="" style="shape=partialRectangle;collapsible=0;dropTarget=0;pointerEvents=0;fillColor=none;top=0;left=0;bottom=1;right=0;points=[[0,0.5],[1,0.5]];portConstraint=eastwest;" parent="JQp8mwMekfqaITCJmqOn-7" vertex="1">
          <mxGeometry y="60" width="210" height="30" as="geometry" />
        </mxCell>
        <mxCell id="JQp8mwMekfqaITCJmqOn-15" value="PK" style="shape=partialRectangle;connectable=0;fillColor=none;top=0;left=0;bottom=0;right=0;fontStyle=0;overflow=hidden;" parent="JQp8mwMekfqaITCJmqOn-14" vertex="1">
          <mxGeometry width="20" height="30" as="geometry" />
        </mxCell>
        <mxCell id="JQp8mwMekfqaITCJmqOn-16" value="hid   VARCHAR(255)" style="shape=partialRectangle;connectable=0;fillColor=none;top=0;left=0;bottom=0;right=0;align=left;spacingLeft=6;fontStyle=0;overflow=hidden;" parent="JQp8mwMekfqaITCJmqOn-14" vertex="1">
          <mxGeometry x="20" width="190" height="30" as="geometry" />
        </mxCell>
        <mxCell id="JQp8mwMekfqaITCJmqOn-11" value="" style="shape=partialRectangle;collapsible=0;dropTarget=0;pointerEvents=0;fillColor=none;top=0;left=0;bottom=1;right=0;points=[[0,0.5],[1,0.5]];portConstraint=eastwest;" parent="JQp8mwMekfqaITCJmqOn-7" vertex="1">
          <mxGeometry y="90" width="210" height="30" as="geometry" />
        </mxCell>
        <mxCell id="JQp8mwMekfqaITCJmqOn-12" value="" style="shape=partialRectangle;connectable=0;fillColor=none;top=0;left=0;bottom=0;right=0;fontStyle=0;overflow=hidden;" parent="JQp8mwMekfqaITCJmqOn-11" vertex="1">
          <mxGeometry width="20" height="30" as="geometry" />
        </mxCell>
        <mxCell id="JQp8mwMekfqaITCJmqOn-13" value="bid   VARCHAR(255)" style="shape=partialRectangle;connectable=0;fillColor=none;top=0;left=0;bottom=0;right=0;align=left;spacingLeft=6;fontStyle=0;overflow=hidden;" parent="JQp8mwMekfqaITCJmqOn-11" vertex="1">
          <mxGeometry x="20" width="190" height="30" as="geometry" />
        </mxCell>
        <mxCell id="JQp8mwMekfqaITCJmqOn-17" value="" style="shape=partialRectangle;collapsible=0;dropTarget=0;pointerEvents=0;fillColor=none;top=0;left=0;bottom=1;right=0;points=[[0,0.5],[1,0.5]];portConstraint=eastwest;" parent="JQp8mwMekfqaITCJmqOn-7" vertex="1">
          <mxGeometry y="120" width="210" height="30" as="geometry" />
        </mxCell>
        <mxCell id="JQp8mwMekfqaITCJmqOn-18" value="" style="shape=partialRectangle;connectable=0;fillColor=none;top=0;left=0;bottom=0;right=0;fontStyle=0;overflow=hidden;" parent="JQp8mwMekfqaITCJmqOn-17" vertex="1">
          <mxGeometry width="20" height="30" as="geometry" />
        </mxCell>
        <mxCell id="JQp8mwMekfqaITCJmqOn-19" value="images   VARCHAR(255)" style="shape=partialRectangle;connectable=0;fillColor=none;top=0;left=0;bottom=0;right=0;align=left;spacingLeft=6;fontStyle=0;overflow=hidden;" parent="JQp8mwMekfqaITCJmqOn-17" vertex="1">
          <mxGeometry x="20" width="190" height="30" as="geometry" />
        </mxCell>
        <mxCell id="JQp8mwMekfqaITCJmqOn-20" value="" style="shape=partialRectangle;collapsible=0;dropTarget=0;pointerEvents=0;fillColor=none;top=0;left=0;bottom=1;right=0;points=[[0,0.5],[1,0.5]];portConstraint=eastwest;" parent="JQp8mwMekfqaITCJmqOn-7" vertex="1">
          <mxGeometry y="150" width="210" height="30" as="geometry" />
        </mxCell>
        <mxCell id="JQp8mwMekfqaITCJmqOn-21" value="" style="shape=partialRectangle;connectable=0;fillColor=none;top=0;left=0;bottom=0;right=0;fontStyle=0;overflow=hidden;" parent="JQp8mwMekfqaITCJmqOn-20" vertex="1">
          <mxGeometry width="20" height="30" as="geometry" />
        </mxCell>
        <mxCell id="JQp8mwMekfqaITCJmqOn-22" value="desc   TEXT(1000)" style="shape=partialRectangle;connectable=0;fillColor=none;top=0;left=0;bottom=0;right=0;align=left;spacingLeft=6;fontStyle=0;overflow=hidden;" parent="JQp8mwMekfqaITCJmqOn-20" vertex="1">
          <mxGeometry x="20" width="190" height="30" as="geometry" />
        </mxCell>
        <mxCell id="JQp8mwMekfqaITCJmqOn-23" value="" style="shape=partialRectangle;collapsible=0;dropTarget=0;pointerEvents=0;fillColor=none;top=0;left=0;bottom=1;right=0;points=[[0,0.5],[1,0.5]];portConstraint=eastwest;" parent="JQp8mwMekfqaITCJmqOn-7" vertex="1">
          <mxGeometry y="180" width="210" height="30" as="geometry" />
        </mxCell>
        <mxCell id="JQp8mwMekfqaITCJmqOn-24" value="" style="shape=partialRectangle;connectable=0;fillColor=none;top=0;left=0;bottom=0;right=0;fontStyle=0;overflow=hidden;" parent="JQp8mwMekfqaITCJmqOn-23" vertex="1">
          <mxGeometry width="20" height="30" as="geometry" />
        </mxCell>
        <mxCell id="JQp8mwMekfqaITCJmqOn-25" value="rating   INT(1)" style="shape=partialRectangle;connectable=0;fillColor=none;top=0;left=0;bottom=0;right=0;align=left;spacingLeft=6;fontStyle=0;overflow=hidden;" parent="JQp8mwMekfqaITCJmqOn-23" vertex="1">
          <mxGeometry x="20" width="190" height="30" as="geometry" />
        </mxCell>
        <mxCell id="JQp8mwMekfqaITCJmqOn-30" value="" style="edgeStyle=elbowEdgeStyle;fontSize=12;html=1;endArrow=ERoneToMany;entryX=1;entryY=0.5;entryDx=0;entryDy=0;exitX=0;exitY=0.5;exitDx=0;exitDy=0;" parent="1" source="9oEyipRwHzk4dOdtvLpS-85" target="JQp8mwMekfqaITCJmqOn-8" edge="1">
          <mxGeometry width="100" height="100" relative="1" as="geometry">
            <mxPoint x="450" y="950" as="sourcePoint" />
            <mxPoint x="410" y="800" as="targetPoint" />
          </mxGeometry>
        </mxCell>
        <mxCell id="JQp8mwMekfqaITCJmqOn-31" value="" style="edgeStyle=elbowEdgeStyle;fontSize=12;html=1;endArrow=ERoneToMany;exitX=0;exitY=0.5;exitDx=0;exitDy=0;entryX=1;entryY=0.5;entryDx=0;entryDy=0;" parent="1" source="9oEyipRwHzk4dOdtvLpS-51" target="JQp8mwMekfqaITCJmqOn-14" edge="1">
          <mxGeometry width="100" height="100" relative="1" as="geometry">
            <mxPoint x="890" y="290" as="sourcePoint" />
            <mxPoint x="660" y="290" as="targetPoint" />
            <Array as="points">
              <mxPoint x="540" y="420" />
              <mxPoint x="750" y="310" />
            </Array>
          </mxGeometry>
        </mxCell>
        <mxCell id="JQp8mwMekfqaITCJmqOn-33" value="" style="edgeStyle=entityRelationEdgeStyle;fontSize=12;html=1;endArrow=ERmandOne;startArrow=ERmandOne;exitX=1;exitY=0.5;exitDx=0;exitDy=0;entryX=0;entryY=0.5;entryDx=0;entryDy=0;" parent="1" source="9oEyipRwHzk4dOdtvLpS-85" target="9oEyipRwHzk4dOdtvLpS-159" edge="1">
          <mxGeometry width="100" height="100" relative="1" as="geometry">
            <mxPoint x="800" y="630" as="sourcePoint" />
            <mxPoint x="900" y="530" as="targetPoint" />
          </mxGeometry>
        </mxCell>
        <mxCell id="Z6pBKh2m4rU8tc-z0iud-4" value="" style="edgeStyle=entityRelationEdgeStyle;fontSize=12;html=1;endArrow=ERmandOne;startArrow=ERmandOne;entryX=0;entryY=0.5;entryDx=0;entryDy=0;" edge="1" parent="1" target="Z6pBKh2m4rU8tc-z0iud-1">
          <mxGeometry width="100" height="100" relative="1" as="geometry">
            <mxPoint x="890" y="400" as="sourcePoint" />
            <mxPoint x="990" y="300" as="targetPoint" />
          </mxGeometry>
        </mxCell>
        <mxCell id="Z6pBKh2m4rU8tc-z0iud-5" value="" style="edgeStyle=entityRelationEdgeStyle;fontSize=12;html=1;endArrow=ERmandOne;startArrow=ERmandOne;exitX=1;exitY=0.5;exitDx=0;exitDy=0;entryX=0;entryY=0.5;entryDx=0;entryDy=0;" edge="1" parent="1" source="9oEyipRwHzk4dOdtvLpS-162" target="hf0RXOYRYlcpUUbahjFG-20">
          <mxGeometry width="100" height="100" relative="1" as="geometry">
            <mxPoint x="1030" y="770" as="sourcePoint" />
            <mxPoint x="1130" y="670" as="targetPoint" />
          </mxGeometry>
        </mxCell>
      </root>
    </mxGraphModel>
  </diagram>
</mxfile>
